<svg xmlns="http://www.w3.org/2000/svg" viewBox="0 0 360 400" font-family="Inter, system-ui, 'Segoe UI', Arial, sans-serif">
  <style>
    .bg { fill: #ffffff; }
    .t { fill: #14213d; font-size: 14px; font-weight: 700; }
    .sub { fill: #5b6577; font-size: 11px; }
    .num { fill: #5b6577; font-size: 10px; }
    .al { fill: #14213d; font-size: 11px; font-weight: 600; }
    .lab { fill: #14213d; font-size: 11.5px; font-weight: 600; }
    .grid { stroke: #ece9e1; stroke-width: 1; }
    .axis { stroke: #14213d; stroke-width: 1.3; fill: none; }
    .lvl { stroke: #14213d; stroke-width: 2.4; }
    .cA { stroke: #0f766e; stroke-width: 2.6; fill: none; } .lA { fill: #0f766e; font-size: 11.5px; font-weight: 700; }
    .cB { stroke: #b45309; stroke-width: 2.6; fill: none; } .lB { fill: #b45309; font-size: 11.5px; font-weight: 700; }
    .cC { stroke: #7c3aed; stroke-width: 2.2; fill: none; stroke-dasharray: 6 4; } .lC { fill: #7c3aed; font-size: 11.5px; font-weight: 700; }
    .down { stroke: #0f766e; stroke-width: 2.4; fill: none; marker-end: url(#hdA); }
    .up { stroke: #b45309; stroke-width: 2.4; fill: none; marker-end: url(#hdB); }
    .step { stroke: #7c3aed; stroke-width: 2.2; fill: none; marker-end: url(#hdC); }
    .guide { stroke: #8a94a6; stroke-width: 1.1; stroke-dasharray: 3 3; fill: none; }
    .dot { fill: #b45309; }
    .arr { stroke: #14213d; stroke-width: 1.4; fill: none; marker-end: url(#hd); marker-start: url(#hs); }
    .hd { fill: #14213d; } .hdA { fill: #0f766e; } .hdB { fill: #b45309; } .hdC { fill: #7c3aed; }
    .ar { fill: #14213d; font-size: 11px; font-weight: 700; }
    @media (prefers-color-scheme: dark) {
      .bg { fill: #151e31; } .t, .al, .ar, .lab { fill: #e9edf5; } .sub, .num { fill: #9aa5ba; }
      .grid { stroke: #27324a; } .axis, .arr, .lvl { stroke: #e9edf5; } .hd { fill: #e9edf5; }
      .cA, .down { stroke: #2dd4bf; } .lA, .hdA { fill: #2dd4bf; } .cB, .up { stroke: #fbbf24; } .lB, .hdB, .dot { fill: #fbbf24; }
      .cC, .step { stroke: #c4b5fd; } .lC, .hdC { fill: #c4b5fd; } .guide { stroke: #6b7894; }
    }
  </style>
  <defs>
    <marker id="hd" viewBox="0 0 10 10" refX="9" refY="5" markerWidth="6" markerHeight="6" orient="auto"><path class="hd" d="M0 0 10 5 0 10z"/></marker>
    <marker id="hs" viewBox="0 0 10 10" refX="1" refY="5" markerWidth="6" markerHeight="6" orient="auto"><path class="hd" d="M10 0 0 5 10 10z"/></marker>
    <marker id="hdA" viewBox="0 0 10 10" refX="9" refY="5" markerWidth="6" markerHeight="6" orient="auto"><path class="hdA" d="M0 0 10 5 0 10z"/></marker>
    <marker id="hdB" viewBox="0 0 10 10" refX="9" refY="5" markerWidth="6" markerHeight="6" orient="auto"><path class="hdB" d="M0 0 10 5 0 10z"/></marker>
    <marker id="hdC" viewBox="0 0 10 10" refX="9" refY="5" markerWidth="6" markerHeight="6" orient="auto"><path class="hdC" d="M0 0 10 5 0 10z"/></marker>
  </defs>
  <rect class="bg" width="360" height="400" rx="14"/>
  <text class="t" x="20" y="28">Enzyme rates level off at a maximum</text>
  <text class="sub" x="20" y="45">V<tspan font-size="8" dy="3">max</tspan><tspan dy="-3"> = 120 µmol L⁻¹ min⁻¹, K</tspan><tspan font-size="8" dy="3">m</tspan><tspan dy="-3"> = 2.0 mmol/L</tspan></text>
  <line class="grid" x1="64" y1="316" x2="336" y2="316"/><text class="num" x="58" y="319.5" text-anchor="end">0</text>
  <line class="grid" x1="64" y1="267.1" x2="336" y2="267.1"/><text class="num" x="58" y="270.6" text-anchor="end">30</text>
  <line class="grid" x1="64" y1="218.3" x2="336" y2="218.3"/><text class="num" x="58" y="221.8" text-anchor="end">60</text>
  <line class="grid" x1="64" y1="169.4" x2="336" y2="169.4"/><text class="num" x="58" y="172.9" text-anchor="end">90</text>
  <line class="grid" x1="64" y1="120.6" x2="336" y2="120.6"/><text class="num" x="58" y="124.1" text-anchor="end">120</text>
  <text class="num" x="64" y="330" text-anchor="middle">0</text>
  <text class="num" x="132" y="330" text-anchor="middle">5</text>
  <text class="num" x="200" y="330" text-anchor="middle">10</text>
  <text class="num" x="268" y="330" text-anchor="middle">15</text>
  <text class="num" x="336" y="330" text-anchor="middle">20</text>
  <path class="axis" d="M64 66 V316 H336"/>
  <path class="guide" d="M64 120.6 H336"/><text class="ar" x="332" y="114.6" text-anchor="end">V<tspan font-size="8.5" dy="3">max</tspan></text>
  <path class="guide" d="M64 218.3 H145.6 M91.2 218.3 V316 M145.6 218.3 V316"/>
  <path class="cA" d="M64 316 L65.7 304.5 L67.4 294.3 L69.1 285.1 L70.8 276.9 L72.5 269.5 L74.2 262.7 L75.9 256.5 L77.6 250.9 L79.3 245.6 L81 240.8 L82.7 236.4 L84.4 232.2 L86.1 228.4 L87.8 224.8 L89.5 221.4 L91.2 218.3 L92.9 215.3 L94.6 212.5 L96.3 209.9 L98 207.4 L99.7 205.1 L101.4 202.9 L103.1 200.7 L104.8 198.7 L106.5 196.8 L108.2 195 L109.9 193.3 L111.6 191.6 L113.3 190.1 L115 188.5 L116.7 187.1 L118.4 185.7 L120.1 184.4 L121.8 183.1 L123.5 181.9 L125.2 180.7 L126.9 179.6 L128.6 178.5 L130.3 177.4 L132 176.4 L133.7 175.4 L135.4 174.5 L137.1 173.6 L138.8 172.7 L140.5 171.8 L142.2 171 L143.9 170.2 L145.6 169.4 L147.3 168.7 L149 167.9 L150.7 167.2 L152.4 166.6 L154.1 165.9 L155.8 165.2 L157.5 164.6 L159.2 164 L160.9 163.4 L162.6 162.8 L164.3 162.3 L166 161.7 L167.7 161.2 L169.4 160.7 L171.1 160.2 L172.8 159.7 L174.5 159.2 L176.2 158.7 L177.9 158.2 L179.6 157.8 L181.3 157.4 L183 156.9 L184.7 156.5 L186.4 156.1 L188.1 155.7 L189.8 155.3 L191.5 154.9 L193.2 154.6 L194.9 154.2 L196.6 153.8 L198.3 153.5 L200 153.1 L201.7 152.8 L203.4 152.5 L205.1 152.2 L206.8 151.8 L208.5 151.5 L210.2 151.2 L211.9 150.9 L213.6 150.6 L215.3 150.4 L217 150.1 L218.7 149.8 L220.4 149.5 L222.1 149.3 L223.8 149 L225.5 148.7 L227.2 148.5 L228.9 148.2 L230.6 148 L232.3 147.8 L234 147.5 L235.7 147.3 L237.4 147.1 L239.1 146.8 L240.8 146.6 L242.5 146.4 L244.2 146.2 L245.9 146 L247.6 145.8 L249.3 145.6 L251 145.4 L252.7 145.2 L254.4 145 L256.1 144.8 L257.8 144.6 L259.5 144.4 L261.2 144.3 L262.9 144.1 L264.6 143.9 L266.3 143.7 L268 143.6 L269.7 143.4 L271.4 143.2 L273.1 143.1 L274.8 142.9 L276.5 142.7 L278.2 142.6 L279.9 142.4 L281.6 142.3 L283.3 142.1 L285 142 L286.7 141.8 L288.4 141.7 L290.1 141.6 L291.8 141.4 L293.5 141.3 L295.2 141.1 L296.9 141 L298.6 140.9 L300.3 140.7 L302 140.6 L303.7 140.5 L305.4 140.4 L307.1 140.2 L308.8 140.1 L310.5 140 L312.2 139.9 L313.9 139.8 L315.6 139.6 L317.3 139.5 L319 139.4 L320.7 139.3 L322.4 139.2 L324.1 139.1 L325.8 139 L327.5 138.9 L329.2 138.8 L330.9 138.6 L332.6 138.5 L334.3 138.4 L336 138.3"/>
  <path class="cC" d="M64 316 L65.7 312 L67.4 308.2 L69.1 304.5 L70.8 301 L72.5 297.6 L74.2 294.3 L75.9 291.1 L77.6 288.1 L79.3 285.1 L81 282.3 L82.7 279.6 L84.4 276.9 L86.1 274.4 L87.8 271.9 L89.5 269.5 L91.2 267.1 L92.9 264.9 L94.6 262.7 L96.3 260.6 L98 258.5 L99.7 256.5 L101.4 254.6 L103.1 252.7 L104.8 250.9 L106.5 249.1 L108.2 247.3 L109.9 245.6 L111.6 244 L113.3 242.4 L115 240.8 L116.7 239.3 L118.4 237.8 L120.1 236.4 L121.8 235 L123.5 233.6 L125.2 232.2 L126.9 230.9 L128.6 229.6 L130.3 228.4 L132 227.2 L133.7 226 L135.4 224.8 L137.1 223.7 L138.8 222.5 L140.5 221.4 L142.2 220.4 L143.9 219.3 L145.6 218.3 L147.3 217.3 L149 216.3 L150.7 215.3 L152.4 214.4 L154.1 213.4 L155.8 212.5 L157.5 211.6 L159.2 210.8 L160.9 209.9 L162.6 209.1 L164.3 208.2 L166 207.4 L167.7 206.6 L169.4 205.8 L171.1 205.1 L172.8 204.3 L174.5 203.6 L176.2 202.9 L177.9 202.1 L179.6 201.4 L181.3 200.7 L183 200.1 L184.7 199.4 L186.4 198.7 L188.1 198.1 L189.8 197.5 L191.5 196.8 L193.2 196.2 L194.9 195.6 L196.6 195 L198.3 194.4 L200 193.9 L201.7 193.3 L203.4 192.7 L205.1 192.2 L206.8 191.6 L208.5 191.1 L210.2 190.6 L211.9 190.1 L213.6 189.5 L215.3 189 L217 188.5 L218.7 188.1 L220.4 187.6 L222.1 187.1 L223.8 186.6 L225.5 186.2 L227.2 185.7 L228.9 185.3 L230.6 184.8 L232.3 184.4 L234 184 L235.7 183.5 L237.4 183.1 L239.1 182.7 L240.8 182.3 L242.5 181.9 L244.2 181.5 L245.9 181.1 L247.6 180.7 L249.3 180.3 L251 179.9 L252.7 179.6 L254.4 179.2 L256.1 178.8 L257.8 178.5 L259.5 178.1 L261.2 177.8 L262.9 177.4 L264.6 177.1 L266.3 176.7 L268 176.4 L269.7 176.1 L271.4 175.8 L273.1 175.4 L274.8 175.1 L276.5 174.8 L278.2 174.5 L279.9 174.2 L281.6 173.9 L283.3 173.6 L285 173.3 L286.7 173 L288.4 172.7 L290.1 172.4 L291.8 172.1 L293.5 171.8 L295.2 171.6 L296.9 171.3 L298.6 171 L300.3 170.7 L302 170.5 L303.7 170.2 L305.4 169.9 L307.1 169.7 L308.8 169.4 L310.5 169.2 L312.2 168.9 L313.9 168.7 L315.6 168.4 L317.3 168.2 L319 167.9 L320.7 167.7 L322.4 167.5 L324.1 167.2 L325.8 167 L327.5 166.8 L329.2 166.6 L330.9 166.3 L332.6 166.1 L334.3 165.9 L336 165.7"/>
  <circle class="dot" cx="91.2" cy="218.3" r="4"/><circle class="dot" cx="145.6" cy="218.3" r="4"/>
  <text class="ar" x="155.6" y="236.3">½V<tspan font-size="8.5" dy="3">max</tspan></text>
  <text class="lB" x="95.2" y="310">K<tspan font-size="8.5" dy="3">m</tspan></text><text class="lC" x="149.6" y="310">K<tspan font-size="8.5" dy="3">m</tspan><tspan dy="-3"> (apparent)</tspan></text>
  <text class="lA" x="213.6" y="172.6">no inhibitor</text>
  <text class="lC" x="206.8" y="211.6">competitive inhibitor</text>
  <text class="al" x="200" y="346" text-anchor="middle">Substrate concentration [S] (mmol/L)</text>
  <text class="al" x="22" y="191" text-anchor="middle" transform="rotate(-90 22 191)">Rate v (µmol L⁻¹ min⁻¹)</text>
  <text class="sub" x="20" y="370">A competitive inhibitor raises the apparent K<tspan font-size="8" dy="3">m</tspan><tspan dy="-3">;</tspan></text>
  <text class="sub" x="20" y="384">at high [S] the rate still approaches the same V<tspan font-size="8" dy="3">max</tspan><tspan dy="-3">.</tspan></text>
</svg>
